<svg class="header-logo" width="120" height="54" viewBox="0 0 120 54" fill="none" xmlns="http://www.w3.org/2000/svg">
                            <path d="M96.0873 48.6924H86.4414L87.7036 52.0157H98.9822L96.0873 48.6924Z" fill="currentColor"></path>
                            <path d="M74.1103 48.6924H64.395L63.1328 52.0157H74.1103V48.6924Z" fill="currentColor"></path>
                            <path d="M61.8476 52.0157L63.1097 48.6924H51.6922L48.832 52.0157H61.8476Z" fill="currentColor"></path>
                            <path d="M85.1572 48.6924H75.3145V52.0157H86.4193L85.1572 48.6924Z" fill="currentColor"></path>
                            <path d="M97.6855 48.6924L100.58 52.0157H111.477L108.2 48.6924H97.6855Z" fill="currentColor"></path>
                            <path d="M50.1043 48.6924H40.3079L37.1582 52.0157H47.2325L50.1043 48.6924Z" fill="currentColor"></path>
                            <path d="M12.9109 26.0774L33.7659 5.234L28.5319 0L2.57031 25.9616L28.5319 51.9232L33.6385 46.8166L12.9109 26.0774Z" fill="currentColor"></path>
                            <path d="M46.0522 40.83C45.7627 40.7489 45.4848 40.6678 45.2069 40.5868L37.1706 48.6231L14.6134 26.0775L37.159 3.53186L44.0605 10.4333C44.871 10.2017 45.7048 9.97015 46.5733 9.75014C46.6312 9.73856 46.6891 9.7154 46.747 9.70382L37.159 0.127441L11.209 26.0775L37.1706 52.0391L47.8818 41.3279C47.2565 41.1658 46.6543 41.0036 46.0522 40.83Z" fill="currentColor"></path>
                            <path d="M47.3954 41.2004L41.4551 47.4882H51.1473L55.0496 42.9605C52.5021 42.451 49.8851 41.8605 47.3954 41.2004Z" fill="currentColor"></path>
                            <path d="M57.8642 43.4932C57.3894 43.4006 56.903 43.3195 56.4051 43.2153L52.7344 47.4766H63.5613L64.7193 44.408C62.4265 44.2228 60.1338 43.9101 57.8642 43.4932Z" fill="currentColor"></path>
                            <path d="M65.9807 44.5122L64.8574 47.4882H74.1096V44.6048C71.3999 44.7206 68.6787 44.6975 65.9807 44.5122Z" fill="currentColor"></path>
                            <path d="M84.4277 43.389L85.991 47.4882H95.0463L90.4492 42.1963C88.4111 42.6363 86.3731 43.03 84.4277 43.389Z" fill="currentColor"></path>
                            <path d="M96.1353 40.8415C94.7226 41.212 93.2636 41.571 91.793 41.8952L96.6448 47.4766H107.02L99.5513 39.8804C98.4513 40.2162 97.3165 40.5288 96.1353 40.8415Z" fill="currentColor"></path>
                            <path d="M83.1422 43.6092C80.5483 44.0608 77.9313 44.3735 75.3027 44.5356V47.4884H84.6823L83.2001 43.5977C83.1885 43.5977 83.1653 43.6092 83.1422 43.6092Z" fill="currentColor"></path>
                            <path d="M4.97888 25.9617H2.57031V34.4959H4.97888V25.9617Z" fill="currentColor"></path>
                            <path d="M115.843 24.0161H112.393V27.4669H115.843V24.0161Z" fill="currentColor"></path>
                            <path d="M102.259 24.0161H98.8086V27.4669H102.259V24.0161Z" fill="currentColor"></path>
                            <path d="M88.3179 24.0161H84.8672V27.4669H88.3179V24.0161Z" fill="currentColor"></path>
                            <path d="M74.3882 24.0161H70.9375V27.4669H74.3882V24.0161Z" fill="currentColor"></path>
                            <path d="M60.4468 24.0161H56.9961V27.4669H60.4468V24.0161Z" fill="currentColor"></path>
                            <path d="M46.5152 24.0161H43.0645V27.4669H46.5152V24.0161Z" fill="currentColor"></path>
                            <path d="M33.9512 18.8749C37.2862 17.1379 41.918 15.4589 47.6731 13.9535C49.3174 13.5251 51.0081 13.1198 52.6755 12.7608C64.4289 10.2133 76.5875 10.1207 88.3872 12.4598C90.6105 12.8998 92.8801 13.3977 95.0802 13.9535C101.078 15.4705 105.907 17.1379 109.381 18.8749H114.87C113.839 18.0643 112.589 17.2769 111.118 16.5126C107.389 14.5788 102.236 12.7724 95.775 11.1397C93.1001 10.4681 90.2631 9.86592 87.4956 9.34484C76.2633 7.24892 64.7299 7.3184 53.5324 9.61117C51.3323 10.0628 49.0974 10.5723 46.932 11.1397C40.7253 12.7724 35.7577 14.5788 32.1795 16.5126C30.7784 17.2653 29.5857 18.0527 28.5898 18.8633H33.9512V18.8749Z" fill="currentColor"></path>
                            <path d="M95.0236 36.6496C93.4487 37.0664 91.8276 37.4601 90.1833 37.8191C76.7624 40.7835 62.8205 40.6561 49.4923 37.2633C48.7165 37.0664 47.9638 36.8696 47.2112 36.6496C42.4635 35.3179 38.4917 33.8705 35.4115 32.3651H29.668C30.3627 32.863 31.127 33.3609 31.9723 33.8357C35.4925 35.839 40.3444 37.7149 46.4237 39.4287C48.0565 39.8919 49.7703 40.3203 51.484 40.7025C63.6427 43.4816 76.2645 43.6205 88.4926 41.1193C90.9244 40.6214 93.3908 40.054 95.7531 39.4287C102.215 37.7149 107.391 35.839 111.119 33.8473C112.034 33.3609 112.868 32.863 113.62 32.3535H107.587C104.31 33.8705 100.084 35.3063 95.0236 36.6496Z" fill="currentColor"></path>
                            <path d="M32.5738 24.0161H29.123V27.4669H32.5738V24.0161Z" fill="currentColor"></path>
                            <path d="M120.001 20.0791H108.317H94.7225H80.769H66.8155H52.8621H38.9086H24.9551V22.0013H114.686H115.624H116.573H117.523H118.472H119.41H120.001V20.0791Z" fill="currentColor"></path>
                            <path d="M120.001 29.2502H108.317H94.7228H80.7809H66.8274H52.8739H38.932H24.9785V31.1725H114.686H115.624H116.574H117.523H118.473H119.411H120.001V29.2502Z" fill="currentColor"></path>
                            <path d="M6.66957 35.1328C6.66957 37.5298 5.38423 39.4636 3.80939 39.4636C2.23456 39.4636 0.949219 37.5182 0.949219 35.1328C0.949219 32.7358 2.23456 30.802 3.80939 30.802C5.38423 30.802 6.66957 32.7358 6.66957 35.1328Z" fill="currentColor"></path>
                            <path d="M7.61942 46.9903C7.61942 49.2483 0 49.2483 0 46.9903C0 42.4626 1.38956 36.8696 3.80971 36.8696C6.22986 36.8696 7.61942 42.4626 7.61942 46.9903Z" fill="currentColor"></path>
                        </svg>